<?xml version="1.0" standalone="no"?>
<!DOCTYPE svg PUBLIC "-//W3C//DTD SVG 20010904//EN"
 "http://www.w3.org/TR/2001/REC-SVG-20010904/DTD/svg10.dtd">
<svg version="1.0" xmlns="http://www.w3.org/2000/svg"
 width="512.000000pt" height="512.000000pt" viewBox="0 0 512.000000 512.000000"
 preserveAspectRatio="xMidYMid meet">
<metadata>
Created by potrace 1.16, written by Peter Selinger 2001-2019
</metadata>
<g transform="translate(0.000000,512.000000) scale(0.100000,-0.100000)"
fill="#FFFFFF" stroke="none">
<path d="M1665 4606 c-490 -282 -902 -525 -917 -539 l-28 -26 1 -893 c0 -665
3 -902 12 -927 11 -30 34 -47 205 -146 105 -61 194 -114 197 -117 3 -3 -79
-54 -182 -113 -103 -59 -196 -117 -205 -129 -16 -19 -18 -53 -18 -349 0 -328
0 -329 23 -348 12 -11 409 -245 881 -520 679 -394 867 -499 894 -499 27 0 225
110 931 516 493 284 906 528 919 542 l23 25 -3 906 c-2 675 -6 911 -15 927 -6
11 -100 71 -207 133 -108 63 -196 115 -196 116 0 2 88 54 195 115 108 62 200
121 205 131 14 25 13 641 -1 672 -13 28 35 -2 -440 275 -1162 677 -1312 762
-1348 762 -29 -1 -215 -104 -926 -514z m1725 -131 c404 -235 736 -428 738
-430 8 -7 -1602 -926 -1616 -923 -9 3 -358 203 -775 445 l-757 441 807 466
807 465 30 -18 c17 -11 362 -211 766 -446z m830 -777 l-1 -193 -496 -285
c-272 -157 -502 -295 -510 -306 -11 -18 -13 -81 -11 -349 l3 -327 24 -19 c51
-42 66 -35 541 239 l445 258 6 -241 c3 -132 7 -481 8 -776 l1 -535 -787 -455
c-432 -250 -797 -460 -810 -467 l-23 -13 0 193 0 193 496 285 c368 212 499
292 510 312 18 35 21 632 3 672 -16 34 -63 53 -100 39 -15 -6 -224 -124 -463
-262 -239 -138 -437 -251 -440 -251 -3 0 -6 350 -6 778 l0 777 802 463 c442
254 804 462 805 462 2 0 3 -87 3 -192z m-1787 -1098 c9 -493 9 -1190 0 -1190
-5 1 -350 200 -768 443 l-760 442 -6 275 c-4 151 -7 503 -8 782 l-1 506 768
-446 769 -447 6 -365z m1537 368 c121 -71 156 -96 147 -104 -7 -7 -163 -98
-347 -204 -184 -106 -350 -201 -367 -212 l-33 -20 0 194 0 194 212 122 c117
67 216 122 220 122 5 0 80 -42 168 -92z m-2060 -1458 c417 -242 593 -340 615
-340 20 0 107 45 272 140 l243 140 165 -96 166 -97 -28 -17 c-64 -40 -812
-470 -817 -470 -6 0 -1519 879 -1528 888 -7 7 296 189 317 191 6 1 273 -152
595 -339z m1548 -29 l-3 -70 -117 67 c-65 37 -118 69 -118 72 0 3 53 35 118
72 l117 68 3 -70 c2 -39 2 -101 0 -139z m-1765 -430 l747 -435 0 -188 c0 -103
-3 -188 -6 -188 -4 0 -350 199 -770 443 l-763 442 -1 193 0 193 23 -13 c13 -7
360 -208 770 -447z"/>
</g>
</svg>
